<!DOCTYPE svg PUBLIC "-//W3C//DTD SVG 1.1//EN" "http://www.w3.org/Graphics/SVG/1.1/DTD/svg11.dtd">
<!-- Uploaded to: SVG Repo, www.svgrepo.com, Transformed by: SVG Repo Mixer Tools -->
<svg fill="#e0e0e0" height="800px" width="800px" version="1.1" id="Layer_1" xmlns="http://www.w3.org/2000/svg" xmlns:xlink="http://www.w3.org/1999/xlink" viewBox="0 0 512 512" xml:space="preserve" stroke="#e0e0e0" stroke-width="0.00512">
<g id="SVGRepo_bgCarrier" stroke-width="0"/>
<g id="SVGRepo_tracerCarrier" stroke-linecap="round" stroke-linejoin="round"/>
<g id="SVGRepo_iconCarrier"> <g> <g> <path d="M441.972,232.727c38.609,0,70.028-31.418,70.028-70.028V70.028C512,31.418,480.582,0,441.972,0H70.028 C31.395,0,0,31.418,0,70.028V162.7c0,38.609,31.395,70.028,70.028,70.028h162.7v46.545h-69.818 c-57.46,0-105.007,41.937-114.385,96.768C20.48,385.094,0,411.159,0,442.182C0,480.675,31.302,512,69.818,512 c38.493,0,69.818-31.325,69.818-69.818c0-29.3-18.199-54.365-43.846-64.698c8.029-29.673,34.932-51.665,67.119-51.665h69.818 v50.828c-27.043,9.635-46.545,35.235-46.545,65.536C186.182,480.675,217.484,512,256,512c38.493,0,69.818-31.325,69.818-69.818 c0-30.301-19.526-55.901-46.545-65.536v-50.828h69.818c32.186,0,59.066,21.993,67.119,51.665 c-25.647,10.333-43.846,35.398-43.846,64.698c0,38.493,31.302,69.818,69.818,69.818C480.675,512,512,480.675,512,442.182 c0-31.023-20.48-57.088-48.524-66.141c-9.402-54.831-56.948-96.768-114.385-96.768h-69.818v-46.545H441.972z"/> </g> </g> </g>
</svg>